<svg xmlns="http://www.w3.org/2000/svg" viewBox="0 0 750 500"><g id="freepik--background-simple--inject-5"><path d="M696,277.29s10-178-141-227-227-13-275,33-64,76-119,82-106,16-132,83,7,120,57,153,108-2,154,19,75,56,169,60,97-23,145-65S687,417.29,696,277.29Z" style="fill:#F67D1A"></path><path d="M696,277.29s10-178-141-227-227-13-275,33-64,76-119,82-106,16-132,83,7,120,57,153,108-2,154,19,75,56,169,60,97-23,145-65S687,417.29,696,277.29Z" style="fill:#fff;opacity:0.7000000000000001"></path></g><g id="freepik--Device--inject-5"><rect x="391.04" y="337.85" width="30.22" height="121.93" style="fill:#263238;stroke:#263238;stroke-linecap:round;stroke-linejoin:round"></rect><rect x="223.12" y="136.72" width="381.42" height="231.35" style="fill:#263238;stroke:#263238;stroke-linecap:round;stroke-linejoin:round"></rect><rect x="215.44" y="136.72" width="381.42" height="231.35" style="fill:#F67D1A;stroke:#263238;stroke-linecap:round;stroke-linejoin:round"></rect><rect x="229.18" y="145.05" width="353.93" height="214.68" style="fill:#fff;stroke:#263238;stroke-linecap:round;stroke-linejoin:round"></rect><rect x="229.18" y="346.81" width="353.93" height="12.93" style="fill:#fff;stroke:#263238;stroke-linecap:round;stroke-linejoin:round"></rect><polygon points="407.8 446.1 295.75 453.34 295.75 460.64 516.55 460.64 516.55 453.34 407.8 446.1" style="fill:#263238;stroke:#263238;stroke-linecap:round;stroke-linejoin:round"></polygon><rect x="229.18" y="145.05" width="353.93" height="214.68" style="fill:#fff;stroke:#263238;stroke-linecap:round;stroke-linejoin:round"></rect><rect x="405.08" y="156.71" width="170.66" height="48.35" style="fill:#fff;stroke:#263238;stroke-linecap:round;stroke-linejoin:round"></rect><rect x="467.45" y="216.64" width="107.61" height="64.02" style="fill:#fff;stroke:#263238;stroke-linecap:round;stroke-linejoin:round"></rect><polygon points="467.45 280.66 504.91 250.69 520.57 262.27 553.26 237.07 574.37 257.5 574.37 280.66 467.45 280.66" style="fill:#263238;stroke:#263238;stroke-linecap:round;stroke-linejoin:round"></polygon><path d="M493.33,233a7.49,7.49,0,1,1-7.49-7.5A7.5,7.5,0,0,1,493.33,233Z" style="fill:#263238;stroke:#263238;stroke-linecap:round;stroke-linejoin:round"></path><rect x="467.45" y="289.51" width="107.61" height="64.02" style="fill:#fff;stroke:#263238;stroke-linecap:round;stroke-linejoin:round"></rect><polygon points="467.45 353.53 504.91 323.56 520.57 335.14 553.26 309.94 574.37 330.38 574.37 353.53 467.45 353.53" style="fill:#263238;stroke:#263238;stroke-linecap:round;stroke-linejoin:round"></polygon><path d="M493.33,305.86a7.49,7.49,0,1,1-7.49-7.49A7.5,7.5,0,0,1,493.33,305.86Z" style="fill:#263238;stroke:#263238;stroke-linecap:round;stroke-linejoin:round"></path><path d="M413.91,320.57l-4.19-25.72h3l2.76,18.48L418.93,295h2.54L425,313.43l2.7-18.58h2.93l-4.13,25.72h-2.61l-3.59-19.05-3.62,19.05Z" style="fill:#263238"></path><line x1="434.49" y1="296.41" x2="459.65" y2="296.41" style="fill:none;stroke:#263238;stroke-miterlimit:10"></line><line x1="434.49" y1="303.35" x2="459.65" y2="303.35" style="fill:none;stroke:#263238;stroke-miterlimit:10"></line><line x1="434.49" y1="310.29" x2="459.65" y2="310.29" style="fill:none;stroke:#263238;stroke-miterlimit:10"></line><line x1="434.49" y1="317.23" x2="459.65" y2="317.23" style="fill:none;stroke:#263238;stroke-miterlimit:10"></line><line x1="434.49" y1="324.17" x2="459.65" y2="324.17" style="fill:none;stroke:#263238;stroke-miterlimit:10"></line><line x1="434.49" y1="331.11" x2="459.65" y2="331.11" style="fill:none;stroke:#263238;stroke-miterlimit:10"></line><line x1="434.49" y1="338.05" x2="459.65" y2="338.05" style="fill:none;stroke:#263238;stroke-miterlimit:10"></line><line x1="434.49" y1="344.99" x2="459.65" y2="344.99" style="fill:none;stroke:#263238;stroke-miterlimit:10"></line><line x1="434.49" y1="351.93" x2="459.65" y2="351.93" style="fill:none;stroke:#263238;stroke-miterlimit:10"></line><path d="M419.47,217.66a34.55,34.55,0,0,0-19.3,5.86V145.05h-171V359.73h171V281.27a34.73,34.73,0,1,0,19.3-63.61Z" style="fill:#263238;stroke:#263238;stroke-linecap:round;stroke-linejoin:round"></path><line x1="246.97" y1="177.82" x2="323.93" y2="177.82" style="fill:none;stroke:#fff;stroke-linecap:round;stroke-linejoin:round;stroke-width:2px"></line><line x1="246.97" y1="200.85" x2="287.15" y2="200.85" style="fill:none;stroke:#fff;stroke-linecap:round;stroke-linejoin:round;stroke-width:2px"></line><line x1="246.97" y1="188.18" x2="284.43" y2="188.18" style="fill:none;stroke:#F67D1A;stroke-linecap:round;stroke-linejoin:round;stroke-width:2px"></line><line x1="292.6" y1="188.18" x2="312.35" y2="188.18" style="fill:none;stroke:#F67D1A;stroke-linecap:round;stroke-linejoin:round;stroke-width:2px"></line><line x1="323.93" y1="188.18" x2="343.68" y2="188.18" style="fill:none;stroke:#F67D1A;stroke-linecap:round;stroke-linejoin:round;stroke-width:2px"></line><line x1="246.97" y1="210.64" x2="284.43" y2="210.64" style="fill:none;stroke:#fff;stroke-linecap:round;stroke-linejoin:round;stroke-width:2px"></line><line x1="292.6" y1="210.64" x2="312.35" y2="210.64" style="fill:none;stroke:#fff;stroke-linecap:round;stroke-linejoin:round;stroke-width:2px"></line><line x1="323.93" y1="210.64" x2="343.68" y2="210.64" style="fill:none;stroke:#F67D1A;stroke-linecap:round;stroke-linejoin:round;stroke-width:2px"></line><line x1="246.97" y1="233.09" x2="284.43" y2="233.09" style="fill:none;stroke:#fff;stroke-linecap:round;stroke-linejoin:round;stroke-width:2px"></line><line x1="292.6" y1="233.09" x2="312.35" y2="233.09" style="fill:none;stroke:#F67D1A;stroke-linecap:round;stroke-linejoin:round;stroke-width:2px"></line><line x1="323.93" y1="233.09" x2="343.68" y2="233.09" style="fill:none;stroke:#fff;stroke-linecap:round;stroke-linejoin:round;stroke-width:2px"></line><line x1="270.12" y1="242.88" x2="298.61" y2="242.88" style="fill:none;stroke:#fff;stroke-linecap:round;stroke-linejoin:round;stroke-width:2px"></line><line x1="304.83" y1="242.88" x2="319.85" y2="242.88" style="fill:none;stroke:#fff;stroke-linecap:round;stroke-linejoin:round;stroke-width:2px"></line><line x1="328.65" y1="242.88" x2="343.68" y2="242.88" style="fill:none;stroke:#fff;stroke-linecap:round;stroke-linejoin:round;stroke-width:2px"></line><line x1="270.12" y1="254.97" x2="298.61" y2="254.97" style="fill:none;stroke:#fff;stroke-linecap:round;stroke-linejoin:round;stroke-width:2px"></line><line x1="304.83" y1="254.97" x2="319.85" y2="254.97" style="fill:none;stroke:#fff;stroke-linecap:round;stroke-linejoin:round;stroke-width:2px"></line><line x1="328.65" y1="254.97" x2="343.68" y2="254.97" style="fill:none;stroke:#fff;stroke-linecap:round;stroke-linejoin:round;stroke-width:2px"></line><line x1="246.97" y1="268.21" x2="323.93" y2="268.21" style="fill:none;stroke:#F67D1A;stroke-linecap:round;stroke-linejoin:round;stroke-width:2px"></line><line x1="246.97" y1="291.24" x2="287.15" y2="291.24" style="fill:none;stroke:#fff;stroke-linecap:round;stroke-linejoin:round;stroke-width:2px"></line><line x1="246.97" y1="278.57" x2="284.43" y2="278.57" style="fill:none;stroke:#F67D1A;stroke-linecap:round;stroke-linejoin:round;stroke-width:2px"></line><line x1="292.6" y1="278.57" x2="312.35" y2="278.57" style="fill:none;stroke:#fff;stroke-linecap:round;stroke-linejoin:round;stroke-width:2px"></line><line x1="323.93" y1="278.57" x2="343.68" y2="278.57" style="fill:none;stroke:#F67D1A;stroke-linecap:round;stroke-linejoin:round;stroke-width:2px"></line><line x1="246.97" y1="301.03" x2="284.43" y2="301.03" style="fill:none;stroke:#F67D1A;stroke-linecap:round;stroke-linejoin:round;stroke-width:2px"></line><line x1="292.6" y1="301.03" x2="312.35" y2="301.03" style="fill:none;stroke:#F67D1A;stroke-linecap:round;stroke-linejoin:round;stroke-width:2px"></line><line x1="323.93" y1="301.03" x2="343.68" y2="301.03" style="fill:none;stroke:#fff;stroke-linecap:round;stroke-linejoin:round;stroke-width:2px"></line><line x1="246.97" y1="323.48" x2="284.43" y2="323.48" style="fill:none;stroke:#fff;stroke-linecap:round;stroke-linejoin:round;stroke-width:2px"></line><line x1="292.6" y1="323.48" x2="312.35" y2="323.48" style="fill:none;stroke:#F67D1A;stroke-linecap:round;stroke-linejoin:round;stroke-width:2px"></line><line x1="323.93" y1="323.48" x2="343.68" y2="323.48" style="fill:none;stroke:#F67D1A;stroke-linecap:round;stroke-linejoin:round;stroke-width:2px"></line><line x1="270.12" y1="333.27" x2="298.61" y2="333.27" style="fill:none;stroke:#fff;stroke-linecap:round;stroke-linejoin:round;stroke-width:2px"></line><line x1="304.83" y1="333.27" x2="319.85" y2="333.27" style="fill:none;stroke:#fff;stroke-linecap:round;stroke-linejoin:round;stroke-width:2px"></line><line x1="328.65" y1="333.27" x2="343.68" y2="333.27" style="fill:none;stroke:#fff;stroke-linecap:round;stroke-linejoin:round;stroke-width:2px"></line><line x1="270.12" y1="345.36" x2="298.61" y2="345.36" style="fill:none;stroke:#fff;stroke-linecap:round;stroke-linejoin:round;stroke-width:2px"></line><line x1="304.83" y1="345.36" x2="319.85" y2="345.36" style="fill:none;stroke:#fff;stroke-linecap:round;stroke-linejoin:round;stroke-width:2px"></line><line x1="328.65" y1="345.36" x2="343.68" y2="345.36" style="fill:none;stroke:#fff;stroke-linecap:round;stroke-linejoin:round;stroke-width:2px"></line><path d="M249.07,164l7.23-3.73v1.08l-6.09,3.06v0l6.09,3.05v1.08l-7.23-3.73Z" style="fill:#fff;stroke:#fff;stroke-miterlimit:10"></path><path d="M260.63,169.2,265,157.9H266l-4.36,11.3Z" style="fill:#fff;stroke:#fff;stroke-miterlimit:10"></path><path d="M277.57,164.87l-7.23,3.71V167.5l6.14-3.05v0l-6.14-3.06v-1.08l7.23,3.71Z" style="fill:#fff;stroke:#fff;stroke-miterlimit:10"></path></g><g id="freepik--Gears--inject-5"><line x1="352.72" y1="95.81" x2="322.37" y2="141.83" style="fill:none;stroke:#263238;stroke-miterlimit:10;stroke-dasharray:5"></line><path d="M401,71.27V60.82L390.6,59.66A25.39,25.39,0,0,0,388,53.44l6.59-8.25-7.39-7.39L379,44.37a25,25,0,0,0-6.2-2.6l-1.17-10.49H361.21l-1.16,10.44a25,25,0,0,0-6.22,2.56l-8.24-6.59-7.39,7.39,6.56,8.21a25,25,0,0,0-2.6,6.2l-10.48,1.17V71.11l10.43,1.16a25.39,25.39,0,0,0,2.56,6.22l-6.59,8.24,7.39,7.39,8.21-6.56a25,25,0,0,0,6.2,2.6l1.17,10.48H371.5l1.16-10.43a25.39,25.39,0,0,0,6.22-2.56l8.24,6.59,7.39-7.39L388,78.64a25,25,0,0,0,2.6-6.2Zm-34.68,7.17A12.48,12.48,0,1,1,378.83,66,12.48,12.48,0,0,1,366.35,78.44Z" style="fill:#F67D1A;stroke:#263238;stroke-linecap:round;stroke-linejoin:round"></path><path d="M442.11,50.29,441,43.37l-7,.39a16.52,16.52,0,0,0-2.38-3.83L435,33.74l-5.71-4.08-4.71,5.26a16.34,16.34,0,0,0-4.39-1l-1.94-6.82-6.92,1.16.39,7a16.79,16.79,0,0,0-3.84,2.38l-6.18-3.45-4.08,5.71,5.26,4.71a16.34,16.34,0,0,0-1,4.39L395,51l1.16,6.92,7-.39a16.79,16.79,0,0,0,2.38,3.84l-3.45,6.18,5.71,4.08,4.71-5.26a16.34,16.34,0,0,0,4.39,1l1.94,6.82L425.81,73l-.39-7a16.52,16.52,0,0,0,3.83-2.38L435.44,67l4.08-5.71-5.26-4.71a16.34,16.34,0,0,0,1-4.39Zm-22.17,8.59a8.37,8.37,0,1,1,6.88-9.64A8.38,8.38,0,0,1,419.94,58.88Z" style="fill:#263238;stroke:#263238;stroke-miterlimit:10"></path></g><g id="freepik--Chart--inject-5"><line x1="263.56" y1="96.29" x2="264.05" y2="98.75" style="fill:none;stroke:#263238;stroke-miterlimit:10"></line><line x1="264.97" y1="103.36" x2="271.84" y2="137.94" style="fill:none;stroke:#263238;stroke-miterlimit:10;stroke-dasharray:4.701129913330078,4.701129913330078"></line><line x1="272.3" y1="140.24" x2="272.79" y2="142.7" style="fill:none;stroke:#263238;stroke-miterlimit:10"></line><rect x="270.6" y="39.43" width="14.12" height="52.57" transform="translate(555.32 131.43) rotate(180)" style="fill:#F67D1A;stroke:#263238;stroke-linecap:round;stroke-linejoin:round"></rect><rect x="251.77" y="51.2" width="14.12" height="40.8" transform="translate(517.66 143.2) rotate(180)" style="fill:#263238;stroke:#263238;stroke-miterlimit:10"></rect><rect x="232.94" y="60.62" width="14.12" height="31.38" transform="translate(480.01 152.62) rotate(180)" style="fill:#F67D1A;stroke:#263238;stroke-linecap:round;stroke-linejoin:round"></rect><rect x="214.12" y="68.46" width="14.12" height="23.54" transform="translate(442.35 160.46) rotate(180)" style="fill:#263238;stroke:#263238;stroke-miterlimit:10"></rect><polygon points="220.72 64.99 219.34 63.18 233.78 52.19 240.94 54.58 252.76 41.85 259.71 43.97 272.32 29.52 277.66 32.97 283.2 29.05 284.52 30.91 277.72 35.72 272.74 32.5 260.46 46.57 253.46 44.44 241.61 57.2 234.2 54.73 220.72 64.99" style="fill:#263238"></polygon><polygon points="285.67 35.23 290.13 25.55 279.51 26.53 285.67 35.23" style="fill:#263238"></polygon></g><g id="freepik--Search--inject-5"><line x1="152.87" y1="94.43" x2="154.95" y2="95.81" style="fill:none;stroke:#263238;stroke-miterlimit:10"></line><line x1="159.13" y1="98.57" x2="223.94" y2="141.42" style="fill:none;stroke:#263238;stroke-miterlimit:10;stroke-dasharray:5.012269973754883,5.012269973754883"></line><line x1="226.03" y1="142.8" x2="228.11" y2="144.18" style="fill:none;stroke:#263238;stroke-miterlimit:10"></line><path d="M85.5,51.55h72.6a6.38,6.38,0,0,1,6.38,6.38v49.65a0,0,0,0,1,0,0H79.13a0,0,0,0,1,0,0V57.92A6.38,6.38,0,0,1,85.5,51.55Z" style="fill:#fff;stroke:#263238;stroke-linecap:round;stroke-linejoin:round"></path><line x1="100.66" y1="74.06" x2="141.09" y2="74.06" style="fill:none;stroke:#263238;stroke-linecap:round;stroke-linejoin:round"></line><line x1="100.66" y1="80.59" x2="141.09" y2="80.59" style="fill:none;stroke:#263238;stroke-linecap:round;stroke-linejoin:round"></line><line x1="100.66" y1="87.11" x2="141.09" y2="87.11" style="fill:none;stroke:#263238;stroke-linecap:round;stroke-linejoin:round"></line><line x1="100.66" y1="93.63" x2="141.09" y2="93.63" style="fill:none;stroke:#263238;stroke-linecap:round;stroke-linejoin:round"></line><path d="M164.48,60.39V56.77a5.22,5.22,0,0,0-5.22-5.22H84.34a5.21,5.21,0,0,0-5.21,5.22v3.62Z" style="fill:#F67D1A;stroke:#263238;stroke-linecap:round;stroke-linejoin:round"></path><path d="M149.88,56.2a1.32,1.32,0,1,0-1.31,1.32A1.32,1.32,0,0,0,149.88,56.2Z" style="fill:#263238;stroke:#263238;stroke-linecap:round;stroke-linejoin:round"></path><path d="M155.15,56.2a1.32,1.32,0,1,0-1.32,1.32A1.32,1.32,0,0,0,155.15,56.2Z" style="fill:#263238;stroke:#263238;stroke-linecap:round;stroke-linejoin:round"></path><path d="M160.42,56.2a1.32,1.32,0,1,0-1.32,1.32A1.32,1.32,0,0,0,160.42,56.2Z" style="fill:#263238;stroke:#263238;stroke-linecap:round;stroke-linejoin:round"></path><path d="M68.3,119.49h0a3.31,3.31,0,0,1-.38-4.72l24-27.51,3.66,3L73,119A3.3,3.3,0,0,1,68.3,119.49Z" style="fill:#263238;stroke:#263238;stroke-linejoin:round"></path><path d="M85.52,94.58l-17.6,20.19A3.3,3.3,0,1,0,73,119L89.65,97.82Z" style="fill:#fff;stroke:#263238;stroke-linejoin:round"></path><path d="M111.89,66.85a15.12,15.12,0,1,0,2,21.29A15.12,15.12,0,0,0,111.89,66.85ZM94,88.46a12.94,12.94,0,1,1,18.22-1.71A12.94,12.94,0,0,1,94,88.46Z" style="fill:#263238;stroke:#263238;stroke-linejoin:round"></path></g><g id="freepik--Outline--inject-5"><line x1="123.01" y1="213.21" x2="125.51" y2="213.21" style="fill:none;stroke:#263238;stroke-miterlimit:10"></line><line x1="130.53" y1="213.21" x2="218.2" y2="213.21" style="fill:none;stroke:#263238;stroke-miterlimit:10;stroke-dasharray:5.010250091552734,5.010250091552734"></line><line x1="220.71" y1="213.21" x2="223.21" y2="213.21" style="fill:none;stroke:#263238;stroke-miterlimit:10"></line><line x1="81.88" y1="176" x2="138.41" y2="176" style="fill:none;stroke:#263238;stroke-linecap:round;stroke-linejoin:round"></line><line x1="110.15" y1="203.85" x2="110.15" y2="176" style="fill:none;stroke:#263238;stroke-linecap:round;stroke-linejoin:round"></line><line x1="65.35" y1="182.93" x2="65.35" y2="218.16" style="fill:none;stroke:#263238;stroke-linecap:round;stroke-linejoin:round"></line><polyline points="119.75 221.86 170.94 221.86 170.94 252.82" style="fill:none;stroke:#263238;stroke-linecap:round;stroke-linejoin:round"></polyline><line x1="138.41" y1="222.39" x2="138.41" y2="252.26" style="fill:none;stroke:#263238;stroke-linecap:round;stroke-linejoin:round"></line><rect x="55.21" y="164.26" width="36.8" height="25.07" style="fill:#263238;stroke:#263238;stroke-miterlimit:10"></rect><rect x="124.81" y="164.26" width="36.8" height="25.07" style="fill:#F67D1A;stroke:#263238;stroke-linecap:round;stroke-linejoin:round"></rect><rect x="126.94" y="244.79" width="23.58" height="16.06" style="fill:#F67D1A;stroke:#263238;stroke-linecap:round;stroke-linejoin:round"></rect><rect x="54.95" y="210.13" width="23.58" height="16.06" style="fill:#fff;stroke:#263238;stroke-linecap:round;stroke-linejoin:round"></rect><rect x="157.88" y="244.79" width="23.58" height="16.06" style="fill:#263238;stroke:#263238;stroke-miterlimit:10"></rect><rect x="97.03" y="209.28" width="26.23" height="26.23" transform="translate(-125 143.02) rotate(-45)" style="fill:#F67D1A;stroke:#263238;stroke-linecap:round;stroke-linejoin:round"></rect></g><g id="freepik--Design--inject-5"><line x1="178.36" y1="331.99" x2="180.73" y2="331.18" style="fill:none;stroke:#263238;stroke-miterlimit:10"></line><line x1="185.48" y1="329.56" x2="221.08" y2="317.41" style="fill:none;stroke:#263238;stroke-miterlimit:10;stroke-dasharray:5.01609992980957,5.01609992980957"></line><line x1="223.45" y1="316.6" x2="225.82" y2="315.79" style="fill:none;stroke:#263238;stroke-miterlimit:10"></line><rect x="60.04" y="316.44" width="112.71" height="26.47" style="fill:#fff;stroke:#263238;stroke-linecap:round;stroke-linejoin:round"></rect><rect x="113.46" y="349.25" width="58.91" height="35.05" style="fill:#fff;stroke:#263238;stroke-linecap:round;stroke-linejoin:round"></rect><polygon points="113.46 384.3 133.97 367.9 142.54 374.24 160.44 360.44 172 371.63 172 384.3 113.46 384.3" style="fill:#263238;stroke:#263238;stroke-linecap:round;stroke-linejoin:round"></polygon><circle cx="123.53" cy="358.2" r="4.1" style="fill:#263238;stroke:#263238;stroke-linecap:round;stroke-linejoin:round"></circle><rect x="113.46" y="389.15" width="58.91" height="35.05" style="fill:#fff;stroke:#263238;stroke-linecap:round;stroke-linejoin:round"></rect><polygon points="113.46 424.2 133.97 407.79 142.54 414.13 160.44 400.33 172 411.52 172 424.2 113.46 424.2" style="fill:#263238;stroke:#263238;stroke-linecap:round;stroke-linejoin:round"></polygon><circle cx="123.53" cy="398.1" r="4.1" style="fill:#263238;stroke:#263238;stroke-linecap:round;stroke-linejoin:round"></circle><line x1="61.75" y1="351.89" x2="106.53" y2="351.89" style="fill:none;stroke:#263238;stroke-miterlimit:10"></line><line x1="61.75" y1="361.84" x2="106.53" y2="361.84" style="fill:none;stroke:#263238;stroke-miterlimit:10"></line><line x1="61.75" y1="371.79" x2="106.53" y2="371.79" style="fill:none;stroke:#263238;stroke-miterlimit:10"></line><line x1="61.75" y1="381.74" x2="106.53" y2="381.74" style="fill:none;stroke:#263238;stroke-miterlimit:10"></line><line x1="61.75" y1="391.69" x2="106.53" y2="391.69" style="fill:none;stroke:#263238;stroke-miterlimit:10"></line><line x1="61.75" y1="401.64" x2="106.53" y2="401.64" style="fill:none;stroke:#263238;stroke-miterlimit:10"></line><line x1="61.75" y1="411.59" x2="106.53" y2="411.59" style="fill:none;stroke:#263238;stroke-miterlimit:10"></line><line x1="61.75" y1="421.54" x2="106.53" y2="421.54" style="fill:none;stroke:#263238;stroke-miterlimit:10"></line></g><g id="freepik--Table--inject-5"><line x1="85.96" y1="460.64" x2="720.99" y2="460.64" style="fill:none;stroke:#263238;stroke-miterlimit:10"></line><line x1="52.99" y1="460.64" x2="70.08" y2="460.64" style="fill:none;stroke:#263238;stroke-miterlimit:10"></line></g></svg>
